<?xml version="1.0" standalone="no"?>
<!DOCTYPE svg PUBLIC "-//W3C//DTD SVG 20010904//EN"
 "http://www.w3.org/TR/2001/REC-SVG-20010904/DTD/svg10.dtd">
<svg version="1.0" xmlns="http://www.w3.org/2000/svg"
 width="700.000000pt" height="700.000000pt" viewBox="0 0 700.000000 700.000000"
 preserveAspectRatio="xMidYMid meet">
<metadata>
Created by potrace 1.11, written by Peter Selinger 2001-2013
</metadata>
<g transform="translate(0.000000,700.000000) scale(0.100000,-0.100000)"
fill="#000000" stroke="none">
<path d="M3910 6988 c-28 -7 -421 -395 -1954 -1926 -1337 -1336 -1924 -1929
-1937 -1957 -25 -54 -25 -156 0 -210 27 -57 2831 -2858 2883 -2880 54 -22 152
-20 202 5 28 13 645 623 1958 1937 1670 1671 1918 1923 1927 1958 8 28 11 483
11 1469 0 1423 0 1430 -21 1472 -23 49 -86 110 -135 130 -28 12 -258 14 -1466
13 -897 0 -1446 -4 -1468 -11z m2590 -1686 l0 -1197 -1750 -1750 -1750 -1750
-1197 1198 -1198 1197 1750 1750 1750 1750 1197 0 1198 0 0 -1198z"/>
<path d="M5065 5981 c-255 -70 -447 -249 -531 -496 -33 -96 -44 -276 -24 -378
48 -249 229 -464 470 -560 163 -64 376 -64 540 0 228 90 400 284 461 521 23
92 25 259 4 350 -61 256 -248 462 -500 548 -109 37 -312 44 -420 15z m254
-497 c102 -30 175 -127 175 -234 0 -107 -73 -204 -175 -234 -65 -20 -73 -20
-138 0 -226 67 -233 388 -9 465 65 23 81 23 147 3z"/>
</g>
</svg>
